<svg width="16" height="16" viewBox="0 0 16 16" fill="none" xmlns="http://www.w3.org/2000/svg">
<g clip-path="url(#clip0_194_6186)">
<path d="M6.22818 12.5214L4.94085 12.1761L5.46551 10.2167C4.68016 9.92709 3.95026 9.50498 3.30751 8.96874L1.87218 10.4047L0.928846 9.46141L2.36485 8.02607C1.55423 7.05524 1.00957 5.89058 0.78418 4.64607L2.09618 4.40674C2.60218 7.20807 5.05285 9.33341 8.00018 9.33341C10.9468 9.33341 13.3982 7.20807 13.9042 4.40674L15.2162 4.6454C14.9911 5.89008 14.4467 7.05498 13.6362 8.02607L15.0715 9.46141L14.1282 10.4047L12.6928 8.96874C12.0501 9.50498 11.3202 9.92709 10.5348 10.2167L11.0595 12.1767L9.77218 12.5214L9.24685 10.5614C8.42175 10.7028 7.57861 10.7028 6.75351 10.5614L6.22818 12.5214Z" fill="#A3A3A3"/>
</g>
<defs>
<clipPath id="clip0_194_6186">
<rect width="16" height="16" fill="white"/>
</clipPath>
</defs>
</svg>
