<svg width="24" height="24" viewBox="0 0 24 24" fill="none" xmlns="http://www.w3.org/2000/svg">
<path d="M12.0003 4C5.89153 4 3.13941 8.78756 2.27008 10.7399C1.91168 11.5448 1.91168 12.4552 2.27008 13.2601C3.13941 15.2124 5.89153 20 12.0003 20C18.1092 20 20.8611 15.2122 21.7303 13.2599C22.0886 12.4552 22.0886 11.5448 21.7303 10.7401C20.8611 8.78782 18.1092 4 12.0003 4Z" fill="#BABDCC"/>
<path d="M10 12C11.1046 12 12 11.1046 12 10C12 9.64033 11.9051 9.30283 11.7389 9.01121C11.8249 9.00379 11.912 9 12 9C13.6569 9 15 10.3431 15 12C15 13.6569 13.6569 15 12 15C10.3431 15 9 13.6569 9 12C9 11.912 9.00379 11.8249 9.01121 11.7389C9.30283 11.9051 9.64033 12 10 12Z" fill="black"/>
</svg>
