<svg width="24" height="24" viewBox="0 0 24 24" fill="none" xmlns="http://www.w3.org/2000/svg">
<path d="M2 8.8C2 7.11984 2 6.27976 2.32698 5.63803C2.6146 5.07354 3.07354 4.6146 3.63803 4.32698C4.27976 4 5.11984 4 6.8 4H17.2C18.8802 4 19.7202 4 20.362 4.32698C20.9265 4.6146 21.3854 5.07354 21.673 5.63803C22 6.27976 22 7.11984 22 8.8V15.2C22 16.8802 22 17.7202 21.673 18.362C21.3854 18.9265 20.9265 19.3854 20.362 19.673C19.7202 20 18.8802 20 17.2 20H6.8C5.11984 20 4.27976 20 3.63803 19.673C3.07354 19.3854 2.6146 18.9265 2.32698 18.362C2 17.7202 2 16.8802 2 15.2V8.8Z" fill="#BABDCC"/>
<path fill-rule="evenodd" clip-rule="evenodd" d="M6.17538 8.43441C6.4878 7.97898 7.11027 7.86305 7.56569 8.17548L11.4343 10.8293C11.7752 11.0632 12.2248 11.0632 12.5657 10.8294L16.4343 8.17548C16.8897 7.86305 17.5122 7.97898 17.8246 8.43441C18.137 8.88983 18.0211 9.51229 17.5657 9.82471L13.6971 12.4786C12.6744 13.1801 11.3256 13.1801 10.3029 12.4786L6.43431 9.82471C5.97889 9.51229 5.86296 8.88983 6.17538 8.43441Z" fill="black"/>
</svg>
